<?xml version="1.0" encoding="UTF-8" standalone="no"?>
<!-- Created with Inkscape (http://www.inkscape.org/) -->

<svg
   sodipodi:docname="Logo_Repairmanent.svg"
   id="svg5"
   version="1.1"
   viewBox="0 0 210 297"
   height="297mm"
   width="210mm"
   inkscape:version="1.2.2 (b0a8486541, 2022-12-01)"
   inkscape:export-filename="Logo_Repairmanent.png"
   inkscape:export-xdpi="300"
   inkscape:export-ydpi="300"
   xmlns:inkscape="http://www.inkscape.org/namespaces/inkscape"
   xmlns:sodipodi="http://sodipodi.sourceforge.net/DTD/sodipodi-0.dtd"
   xmlns="http://www.w3.org/2000/svg"
   xmlns:svg="http://www.w3.org/2000/svg">
  <sodipodi:namedview
     id="namedview7"
     pagecolor="#505050"
     bordercolor="#eeeeee"
     borderopacity="1"
     inkscape:showpageshadow="0"
     inkscape:pageopacity="0"
     inkscape:pagecheckerboard="0"
     inkscape:deskcolor="#505050"
     inkscape:document-units="mm"
     showgrid="true"
     inkscape:zoom="3.9257124"
     inkscape:cx="335.35314"
     inkscape:cy="589.95661"
     inkscape:window-width="1854"
     inkscape:window-height="1008"
     inkscape:window-x="0"
     inkscape:window-y="0"
     inkscape:window-maximized="1"
     inkscape:current-layer="layer1">
    <inkscape:grid
       type="xygrid"
       id="grid3251" />
  </sodipodi:namedview>
  <defs
     id="defs2" />
  <g
     inkscape:label="Layer 1"
     inkscape:groupmode="layer"
     id="layer1">
    <path
       id="path3877"
       style="fill:#ffdd55;stroke:#ffcc00;stroke-width:0.264583"
       d="M 93.62891 142.21819 L 92.637756 143.86357 L 92.484794 144.52503 L 92.49978 145.54874 L 90.555196 145.7849 L 90.324719 144.78703 L 90.017761 144.1819 L 88.661255 142.82126 L 87.662866 143.20004 L 87.549695 145.11776 L 87.721261 145.77456 L 88.210636 146.67425 L 86.598848 147.78684 L 85.931189 147.01015 L 85.377734 146.61689 L 83.544771 146.04277 L 82.836287 146.8422 L 83.627454 148.59248 L 84.08479 149.09478 L 84.935901 149.66373 L 84.025879 151.39799 L 83.073482 151.02076 L 82.400655 150.92981 L 80.510848 151.27294 L 80.25505 152.31008 L 81.769169 153.49244 L 82.407373 153.72447 L 83.425916 153.83247 L 83.425916 155.79152 L 82.407373 155.90004 L 81.769169 156.13156 L 80.25505 157.31391 L 80.510848 158.35106 L 82.400655 158.69471 L 83.073482 158.60324 L 84.025879 158.226 L 84.935901 159.96026 L 84.08479 160.52974 L 83.627454 161.03151 L 82.836287 162.7818 L 83.544771 163.58123 L 85.377734 163.0071 L 85.931189 162.61385 L 86.598848 161.83715 L 88.210636 162.94974 L 87.721261 163.84943 L 87.549695 164.50624 L 87.662866 166.42395 L 88.661255 166.80274 L 90.017761 165.44261 L 90.324719 164.83697 L 90.555196 163.8391 L 92.49978 164.07526 L 92.484794 165.09897 L 92.637756 165.76042 L 93.62891 167.4058 L 94.689311 167.27713 L 95.258268 165.44261 L 95.24845 164.76359 L 94.988517 163.77295 L 96.820447 163.07842 L 97.282951 163.99206 L 97.725818 164.50624 L 99.368095 165.50256 L 100.24711 164.89588 L 99.898295 163.0071 L 99.574284 162.41024 L 98.883887 161.65422 L 100.18303 160.18764 L 101.01709 160.78192 L 101.64858 161.03151 L 103.56577 161.15037 L 104.06187 160.20469 L 102.87486 158.69419 L 102.31107 158.31643 L 101.34782 157.96762 L 101.81704 156.06541 L 102.83145 156.20442 L 103.50634 156.13156 L 105.25972 155.34607 L 105.25972 154.27792 L 103.50634 153.49244 L 102.83145 153.41958 L 101.81704 153.55859 L 101.34782 151.65638 L 102.31107 151.30756 L 102.87486 150.92981 L 104.06187 149.4193 L 103.56577 148.47362 L 101.64858 148.59248 L 101.01709 148.84208 L 100.18303 149.43636 L 98.883887 147.9703 L 99.574284 147.21375 L 99.898295 146.61689 L 100.24711 144.72812 L 99.368095 144.12144 L 97.725818 145.11776 L 97.282951 145.63194 L 96.820447 146.54558 L 94.988517 145.85105 L 95.24845 144.86041 L 95.258268 144.1819 L 94.689311 142.34687 L 93.62891 142.21819 z M 92.637756 148.85861 A 5.953125 5.953125 0 0 1 98.590881 154.81174 A 5.953125 5.953125 0 0 1 92.637756 160.76486 A 5.953125 5.953125 0 0 1 86.684631 154.81174 A 5.953125 5.953125 0 0 1 92.637756 148.85861 z " />
    <g
       inkscape:label="Rendered Gear Rack"
       transform="translate(81.539417,165.36458)"
       id="g4961"
       style="fill:none;stroke:#800080" />
    <path
       style="fill:#ff0000;stroke:#ff0000;stroke-width:0.264583px;stroke-linecap:butt;stroke-linejoin:miter;stroke-opacity:1"
       d="m 80.697916,165.36458 h 0.79375 l 1.058333,2.64583 h 1.5875 l 1.058333,-2.64583 h 1.5875 l 1.058334,2.64583 h 1.5875 l 1.058333,-2.64583 h 1.5875 l 1.058333,2.64583 h 1.5875 l 1.058333,-2.64583 h 0.79375 v 6.61458 H 80.697916 Z"
       id="path4968" />
    <path
       style="fill:#e6e6e6;stroke:#e6e6e6;stroke-width:0.264583px;stroke-linecap:butt;stroke-linejoin:miter;stroke-opacity:1"
       d="m 96.572915,165.36459 h 0.79375 l 1.058333,2.64583 h 1.587502 l 1.05833,-2.64583 h 1.5875 l 1.05834,2.64583 h 1.5875 l 1.05833,-2.64583 h 1.5875 l 1.05833,2.64583 h 1.58751 l 1.05833,-2.64583 h 0.79375 v 6.61458 H 96.572915 Z"
       id="path4968-1" />
    <path
       style="fill:#008000;stroke:#008000;stroke-width:0.264583px;stroke-linecap:butt;stroke-linejoin:miter;stroke-opacity:1"
       d="m 112.44791,165.36459 h 0.79375 l 1.05834,2.64583 h 1.5875 l 1.05833,-2.64583 h 1.5875 l 1.05834,2.64583 h 1.5875 l 1.05833,-2.64583 h 1.5875 l 1.05833,2.64583 h 1.5875 l 1.05834,-2.64583 h 0.79375 v 6.61458 h -15.87501 z"
       id="path4968-2" />
    <text
       xml:space="preserve"
       style="font-style:normal;font-variant:normal;font-weight:800;font-stretch:condensed;font-size:5.64444px;line-height:1.25;font-family:Ubuntu;-inkscape-font-specification:'Ubuntu Ultra-Bold Condensed';letter-spacing:0px;word-spacing:0px;fill:#000000;fill-opacity:1;stroke:none;stroke-width:0.264583"
       x="88.195152"
       y="170.93495"
       id="text5084"><tspan
         sodipodi:role="line"
         id="tspan5082"
         style="font-style:normal;font-variant:normal;font-weight:800;font-stretch:condensed;font-size:5.64444px;font-family:Ubuntu;-inkscape-font-specification:'Ubuntu Ultra-Bold Condensed';stroke-width:0.264583"
         x="88.195152"
         y="170.93495">Repairmanent</tspan></text>
  </g>
</svg>
